<?xml version="1.0" encoding="utf-8"?>
<!-- Generator: Adobe Illustrator 19.0.1, SVG Export Plug-In . SVG Version: 6.00 Build 0)  -->
<svg version="1.1"
	 id="svg2" xmlns:cc="http://creativecommons.org/ns#" xmlns:svg="http://www.w3.org/2000/svg" xmlns:rdf="http://www.w3.org/1999/02/22-rdf-syntax-ns#" xmlns:sodipodi="http://sodipodi.sourceforge.net/DTD/sodipodi-0.dtd" xmlns:dc="http://purl.org/dc/elements/1.1/" xmlns:inkscape="http://www.inkscape.org/namespaces/inkscape" sodipodi:docname="profile2.svg" inkscape:version="0.91 r13725"
	 xmlns="http://www.w3.org/2000/svg" xmlns:xlink="http://www.w3.org/1999/xlink" x="0px" y="0px" viewBox="-10 201.5 590.3 390.5"
	 style="enable-background:new -10 201.5 590.3 390.5;" xml:space="preserve">
<style type="text/css">
	.st0{fill:#C2E8FF;}
	.st1{fill:none;stroke:#1175EF;stroke-width:7;stroke-linecap:round;}
	.st2{fill:none;stroke:#1175EF;stroke-width:7;stroke-linecap:round;stroke-miterlimit:5.4;}
	.st3{stroke:#1175EF;stroke-width:5;}
	.st4{fill:none;stroke:#1175EF;stroke-width:2;stroke-linecap:round;}
	.st5{fill:#1175EF;}
	.st6{fill:none;stroke:#1175EF;stroke-width:2;}
	.st7{stroke:#1175EF;}
	.st8{fill:none;stroke:#1175EF;stroke-width:6;stroke-linecap:round;}
	.st9{fill:none;stroke:#1175EF;stroke-width:6;stroke-linecap:round;stroke-linejoin:round;}
	.st10{fill:none;stroke:#1175EF;stroke-width:4.3368;stroke-linecap:round;}
	.st11{fill:none;stroke:#1175EF;stroke-width:4;stroke-linecap:round;}
	.st12{fill:none;stroke:#1175EF;stroke-width:6;}
	.st13{fill:none;stroke:#1175EF;stroke-width:5;}
	.st14{fill:#B3B3B3;stroke:#1175EF;stroke-width:5;}
	.st15{fill:#1175EF;stroke:#1175EF;stroke-width:5;}
</style>
<path class="st0" d="M277.7,327.8c1.9,1.9,6.8,0.1,24.7-8.9c22.9-11.5,24.7-13.4,25.2-16.3c1.7-10-15.5-21.9-19.3-19.4
	c-2.9,1.9,3.4,10.7-1.2,17.3c-2.8,4.1-6.2,2.2-16.6,8.2c-8,4.6-10.3,8.2-11.4,10.5C278.4,320.5,275.8,325.8,277.7,327.8z"/>
<path class="st0" d="M173.7,341.5c13.1-5.3,4.3-31.8,20.7-46.7c8.4-7.7,17.4-6.6,18-12c0.6-6-9.5-14.6-18.7-14
	c-17.2,1.2-25.6,34.9-28,44.7c-1.5,6.1-5.9,24,0.7,28C169.2,343.2,173,341.8,173.7,341.5z"/>
<path class="st0" d="M214.3,257.5c12.3,6.1,24-16.2,44.7-14.7c18.1,1.4,22.8,21.8,38,19.3c7.7-1.3,15.5-7.9,15.8-14.7
	c0.3-7.3-7.9-12.8-11.8-15.3c-21.6-14.5-48.9-7.6-69.4-2.7c-19.4,4.6-23.7,9-24.7,13.2C205.6,247.8,208.9,254.8,214.3,257.5z"/>
<path class="st0" d="M238,472.8c-11.1-14.7,17-48,4-62.7c-4.2-4.7-10.1-4.8-10.7-9.3c-0.7-6.4,10.8-9.4,16.7-20
	c4.7-8.4-1.9-12.6,2-26c1.6-5.4,3.4-11.9,8.7-14c7.7-3.1,17.5,5.6,18.7,6.7c8.3,7.6,7,15,13.3,18c0,0,2.4,0.8,18.7-4
	c-2.6-9.8-4-22.4,2-33.3c10.4-19.1,35.8-19.5,37.3-33.3c1.3-11.4-13.9-21.2-12-23.3c1.6-1.7,12.5,4.6,21.5,12.7
	c7.5,6.7,18.5,16.5,20.7,31.3c1.5,10.3-3,10.8-1.2,20.2c3.2,16.8,18.8,19.7,17.7,30.8c-0.9,8.5-10.1,9.5-11,20.8
	c-0.3,4.4,1,4.8,0.8,13.3c-0.1,7.7-1.2,9.1,0.2,12.7c1.3,3.4,3.3,4.8,4,9.2c0.3,2,0.6,3.7,0,5c-1.5,3.7-9.4,5.3-44,1.3
	c-10.5-1.2-15.7-1.8-16.7-2c-9.8-2.5-19.1-9.5-37.3-23.3c-5.6-4.3-10.4-8.1-10-12.7c0.4-4.4,5.4-6.4,4.7-8.7c-1-3-11.3-4.9-15.3-0.7
	c-6.2,6.5,1.3,28.9,16,40.7c6.6,5.2,14.1,8,23.3,11.3c16.2,5.9,23.5,5.1,24.7,9.3c1.9,6.8-13.2,11.2-19.3,28.7
	c-4.5,12.7,0.1,20.3-4.7,23.3c-6.3,4-15.1-8.5-36-15.3C252.7,472.3,243.6,480.2,238,472.8z"/>
<defs>
	
	<inkscape:path-effect  is_visible="true" id="path-effect4216" effect="spiro"></inkscape:path-effect>
	<inkscape:path-effect  is_visible="true" id="path-effect4212" effect="spiro"></inkscape:path-effect>
	<inkscape:path-effect  is_visible="true" id="path-effect5877" effect="spiro"></inkscape:path-effect>
	<inkscape:path-effect  is_visible="true" id="path-effect5870" effect="spiro"></inkscape:path-effect>
	<inkscape:path-effect  is_visible="true" id="path-effect5812" effect="spiro"></inkscape:path-effect>
	<inkscape:path-effect  is_visible="true" id="path-effect5754" effect="spiro"></inkscape:path-effect>
	<inkscape:path-effect  is_visible="true" id="path-effect5750" effect="spiro"></inkscape:path-effect>
	<inkscape:path-effect  is_visible="true" id="path-effect5746" effect="spiro"></inkscape:path-effect>
	<inkscape:path-effect  is_visible="true" id="path-effect5742" effect="spiro"></inkscape:path-effect>
	
		<inkscape:path-effect  tang_offset="0" spacing="0" scale_y_rel="false" prop_units="false" prop_scale="1" pattern="M 0,5 C 0,2.24 2.24,0 5,0 7.76,0 10,2.24 10,5 10,7.76 7.76,10 5,10 2.24,10 0,7.76 0,5 Z" normal_offset="0" fuse_tolerance="0" copytype="single_stretched" is_visible="true" id="path-effect7291" effect="skeletal" vertical_pattern="false">
		</inkscape:path-effect>
	<inkscape:path-effect  is_visible="true" id="path-effect7287" effect="spiro"></inkscape:path-effect>
	<inkscape:path-effect  is_visible="true" id="path-effect5754-0" effect="spiro"></inkscape:path-effect>
	<inkscape:path-effect  is_visible="true" id="path-effect5754-0-0" effect="spiro"></inkscape:path-effect>
	<inkscape:path-effect  is_visible="true" id="path-effect5754-7" effect="spiro"></inkscape:path-effect>
	<inkscape:path-effect  is_visible="true" id="path-effect5812-4" effect="spiro"></inkscape:path-effect>
	<inkscape:path-effect  is_visible="true" id="path-effect5812-4-1" effect="spiro"></inkscape:path-effect>
	<inkscape:path-effect  is_visible="true" id="path-effect5812-3" effect="spiro"></inkscape:path-effect>
</defs>
<sodipodi:namedview  showguides="true" showgrid="false" pagecolor="#ffffff" inkscape:zoom="0.70710682" inkscape:cy="243.57585" inkscape:cx="377.19996" fit-margin-top="0" fit-margin-left="0" borderopacity="1.0" bordercolor="#666666" id="base" inkscape:window-y="-8" inkscape:window-x="-8" inkscape:window-width="1366" inkscape:window-maximized="1" inkscape:window-height="705" inkscape:snap-smooth-nodes="false" inkscape:snap-nodes="false" inkscape:pageshadow="2" inkscape:pageopacity="0.0" inkscape:document-units="px" inkscape:current-layer="layer1" fit-margin-right="0" fit-margin-bottom="0">
	</sodipodi:namedview>
<path id="path4170" sodipodi:nodetypes="ccc" inkscape:export-ydpi="90" inkscape:export-xdpi="90" inkscape:connector-curvature="0" class="st1" d="
	M212.5,243.6c-35.8,24.6-40.2,57-43.8,97.8l18,22.9"/>
<path id="path4155" sodipodi:nodetypes="cccccccsscc" inkscape:export-ydpi="90" inkscape:export-xdpi="90" inkscape:connector-curvature="0" class="st2" d="
	M351.9,276l27.4,38.2l-4,20.8l23.4,31.5l-14.7,18l2,13.4l-3.3,14.1c0,0,6,7.2,5.4,11.3c-0.6,4.4-4.6,8.2-8.7,10
	c-18,8.1-62.3,3.6-62.3,3.6l-10.1-5.1"/>
<path id="path4157" sodipodi:nodetypes="csc" inkscape:export-ydpi="90" inkscape:export-xdpi="90" inkscape:connector-curvature="0" class="st1" d="
	M264.4,390c0,0,0.3,14.2,4.3,18.7c5.5,6.1,27.8,16.8,27.8,16.8"/>
<path id="path4159" sodipodi:nodetypes="ccccccc" inkscape:export-ydpi="90" inkscape:export-xdpi="90" inkscape:connector-curvature="0" class="st3" d="
	M347.2,306.9l-18.6,14l1.2,0.9l18.3-11.1l18,6.4l1.1-3.1L347.2,306.9z"/>
<path id="path4161" sodipodi:nodetypes="cc" inkscape:export-ydpi="90" inkscape:export-xdpi="90" inkscape:connector-curvature="0" class="st4" d="
	M341.8,342.2c6.6,2,12.9,4.8,22.1-1"/>
<ellipse id="path4165" inkscape:export-ydpi="90" inkscape:export-xdpi="90" class="st5" cx="352.4" cy="328.9" rx="5.5" ry="7.5">
</ellipse>
<path id="path4169" inkscape:export-ydpi="90" inkscape:export-xdpi="90" inkscape:connector-curvature="0" class="st1" d="
	M267.4,378l-29.8,4.2l-9.9-27.9l13.7-21.3l19.9,10.4"/>
<path id="path4171" inkscape:export-ydpi="90" inkscape:export-xdpi="90" inkscape:connector-curvature="0" class="st6" d="
	M244.2,367.1l-2.4-16.3l11.6,4.5l-4.2,6.6l-2.8-5.5"/>
<path id="path4177" sodipodi:nodetypes="cc" inkscape:export-ydpi="90" inkscape:export-xdpi="90" inkscape:connector-curvature="0" class="st6" d="
	M375.2,365.7c-9.5,4.8-6.6,8.6-1.2,12.6"/>
<circle id="path4179" inkscape:export-ydpi="90" inkscape:export-xdpi="90" class="st7" cx="381.2" cy="371.4" r="1.5">
</circle>
<path id="path4193" sodipodi:nodetypes="cccc" inkscape:export-ydpi="90" inkscape:export-xdpi="90" inkscape:connector-curvature="0" class="st1" d="
	M332.8,444.3c-17.6,16.8-22.8,37.8-20.2,54.4l-98.4-22.8c10.4-21.4,9.2-40.5,0.5-70.5"/>
<path id="path4162" sodipodi:nodetypes="cccccccccc" inkscape:export-ydpi="90" inkscape:export-xdpi="90" inkscape:connector-curvature="0" class="st8" d="
	M268.4,342.3l5.1,15.5l17.8-0.5l-1.9-32.8l35.8-37.7l-10.1-14l-32.3,0.5l24.6-10.5l37.3,7.8l0,0"/>
<path id="path4164" sodipodi:nodetypes="ccc" inkscape:export-ydpi="90" inkscape:export-xdpi="90" inkscape:connector-curvature="0" class="st1" d="
	M349,268.7l-8.1-20c-37.3-30.9-96.9-24.8-120-10.7"/>
<path id="path5752" inkscape:path-effect="#path-effect5754" inkscape:original-d="m 272.6451,210.62798 c 0,0 -15.7483,-6.58269 -24.23666,-8.188 -10.32348,-1.95238 -31.67553,-1.6069 -31.67553,-1.6069" sodipodi:nodetypes="cac" inkscape:export-ydpi="90" inkscape:export-xdpi="90" inkscape:connector-curvature="0" class="st9" d="
	M303,264.4c-5.1-2.5-10.5-4.3-16.1-5.5c-6.9-1.4-14-1.7-20.9-1.1"/>
<path id="path5752-2" inkscape:path-effect="#path-effect5754-0" inkscape:original-d="m 300.50448,212.10075 c 0,0 -19.86605,-14.87135 -31.31039,-20.20871 -13.91851,-6.49127 -44.36798,-13.87394 -44.36798,-13.87394" sodipodi:nodetypes="cac" inkscape:export-ydpi="90" inkscape:export-xdpi="90" inkscape:connector-curvature="0" class="st9" d="
	M321.4,265.4c-6.4-5.3-13.3-9.8-20.7-13.4c-9.3-4.5-19.2-7.6-29.4-9.2"/>
<path id="path5752-2-2" inkscape:path-effect="#path-effect5754-0-0" inkscape:original-d="m 335.4885,219.50096 c 0,0 -16.16292,-18.83022 -26.17526,-26.52524 -12.17692,-9.35864 -40.29683,-23.17691 -40.29683,-23.17691" sodipodi:nodetypes="cac" inkscape:export-ydpi="90" inkscape:export-xdpi="90" inkscape:connector-curvature="0" class="st9" d="
	M344.6,270.3c-5.1-6.5-10.8-12.4-17.3-17.6c-8-6.4-17.1-11.6-26.7-15.3"/>
<path id="path5810" inkscape:path-effect="#path-effect5812" inkscape:original-d="m 136.57828,220.16537 c -17.42962,19.72427 -17.42962,19.72427 -17.42962,19.72427" inkscape:export-ydpi="90" inkscape:export-xdpi="90" inkscape:connector-curvature="0" class="st10" d="
	M212.9,270.7l-11.5,13.1"/>
<path id="path5810-5" inkscape:path-effect="#path-effect5812-4" inkscape:original-d="m 125.96377,294.07362 c -21.5732,15.00325 -21.5732,15.00325 -21.5732,15.00325" inkscape:export-ydpi="90" inkscape:export-xdpi="90" inkscape:connector-curvature="0" class="st11" d="
	M205.8,319.7l-14.3,9.9"/>
<path id="path5810-5-6" inkscape:path-effect="#path-effect5812-4-1" inkscape:original-d="M 109.44668,268.63698 C 92.410204,288.64343 92.410204,288.64343 92.410204,288.64343" inkscape:export-ydpi="90" inkscape:export-xdpi="90" inkscape:connector-curvature="0" class="st11" d="
	M194.9,302.9l-11.3,13.2"/>
<path id="path5810-2" inkscape:path-effect="#path-effect5812-3" inkscape:original-d="m 151.57887,249.68277 -9.56508,7.44883 -11.16722,8.6965" sodipodi:nodetypes="ccc" inkscape:export-ydpi="90" inkscape:export-xdpi="90" inkscape:connector-curvature="0" class="st11" d="
	M222.8,290.3c-2.2,1.7-4.2,3.3-6.4,5c-2.5,1.9-5,3.8-7.4,5.8"/>
<path id="path5875" sodipodi:nodetypes="czc" inkscape:connector-curvature="0" class="st11" d="M384.8,397.8c0,0-8.2,2.4-11.3,2.9
	c-3.1,0.5-8.4,0.4-8.4,0.4"/>
<g id="g4265" transform="translate(438.74677,-135.67871)">
	<path id="rect4185-3" inkscape:connector-curvature="0" class="st12" d="M-182.2,417.9l-72.5,94.1l27.7,21.4l21.4-27.7l-5.7-16.1
		l13.7-21.3l14.9,7.8l28.2-36.7L-182.2,417.9z"/>
	<g id="g4257">
		<path id="path4335-68" sodipodi:nodetypes="cc" inkscape:connector-curvature="0" class="st6" d="M-198.8,438.6l11.9,8.9"/>
		<path id="path4335-6-2" sodipodi:nodetypes="cc" inkscape:connector-curvature="0" class="st6" d="M-206.4,449.1l11.9,8.9"/>
		<path id="path4335-6-6-0" sodipodi:nodetypes="cc" inkscape:connector-curvature="0" class="st6" d="M-213.5,458.7l11.9,8.9"/>
		<path id="path4335-8-7" sodipodi:nodetypes="cc" inkscape:connector-curvature="0" class="st6" d="M-220.7,467.7l11.9,8.9"/>
		<path id="path4335-6-0-6" sodipodi:nodetypes="cc" inkscape:connector-curvature="0" class="st6" d="M-228.3,478.2l11.9,8.9"/>
		<path id="path4335-6-6-8-0" sodipodi:nodetypes="cc" inkscape:connector-curvature="0" class="st6" d="M-235.4,487.8l11.9,8.9"/>
	</g>
</g>
<path id="path4218" sodipodi:nodetypes="csc" inkscape:connector-curvature="0" class="st13" d="M62.5,352.6
	c0,0,14.2,184.8,228.2,180.8c215-4.1,215.8-179.9,215.8-179.9"/>
<rect id="rect4220" x="52.8" y="334.6" class="st13" width="19.1" height="19.1"/>
<rect id="rect4220-4" x="496" y="333.1" class="st13" width="19.1" height="19.1"/>
<g id="g4300" transform="translate(631.85191,-108.36319)">
	<path id="path4239" inkscape:connector-curvature="0" class="st14" d="M-124.9,644.6H-570"/>
</g>
<rect id="rect4220-4-9-4" x="507.5" y="526.6" class="st13" width="19.1" height="19.1"/>
<rect id="rect4220-4-9-9" x="41.3" y="526.6" class="st13" width="19.1" height="19.1"/>
<rect id="rect4220-4-9" x="274" y="526.6" class="st15" width="19.1" height="19.1"/>
</svg>
