<?xml version="1.0" encoding="utf-8"?>
<!-- Generator: Adobe Illustrator 16.0.0, SVG Export Plug-In . SVG Version: 6.00 Build 0)  -->
<!DOCTYPE svg PUBLIC "-//W3C//DTD SVG 1.1//EN" "http://www.w3.org/Graphics/SVG/1.1/DTD/svg11.dtd">
<svg version="1.1" id="Слой_1" xmlns="http://www.w3.org/2000/svg" xmlns:xlink="http://www.w3.org/1999/xlink" x="0px" y="0px"
	 width="595.28px" height="841.89px" viewBox="0 0 595.28 841.89" enable-background="new 0 0 595.28 841.89" xml:space="preserve">
<polygon stroke="#000000" stroke-miterlimit="10" points="279.75,382.64 271.375,392.39 271.375,326.64 279.75,320.14 "/>
<polygon stroke="#000000" stroke-miterlimit="10" points="297.75,402.14 289.375,406.64 289.375,369.765 297.75,367.359 "/>
<polygon stroke="#000000" stroke-miterlimit="10" points="289.375,313.921 297.75,313.921 297.75,344.724 289.375,347.203 "/>
<rect x="333.375" y="314.14" stroke="#000000" stroke-miterlimit="10" width="8.375" height="37.417"/>
<polygon stroke="#000000" stroke-miterlimit="10" points="341.75,411.724 333.375,407.14 333.375,378.849 341.75,381.64 "/>
<polygon stroke="#000000" stroke-miterlimit="10" points="341.75,361.724 333.375,357.14 333.375,331.724 341.75,333.307 "/>
<polygon stroke="#000000" stroke-miterlimit="10" points="343.875,344.015 358.375,340.89 358.375,321.765 351.125,327.178 
	351.125,333.765 343.875,335.724 "/>
<polygon points="336.438,305.953 342.25,313.765 337.063,317.89 333.375,307.578 "/>
<polygon stroke="#000000" stroke-miterlimit="10" points="341.75,313.921 284,314.14 280.262,306.14 341.75,306.14 "/>
<rect x="280.262" y="356.14" stroke="#000000" stroke-miterlimit="10" width="61.488" height="8.334"/>
<polygon stroke="#000000" stroke-miterlimit="10" points="304.075,354.291 330.771,347.468 330.771,339.156 279.416,352.041 
	279.416,354.291 "/>
<rect x="289.375" y="366.765" stroke="#000000" stroke-miterlimit="10" width="8.375" height="8.083"/>
<polygon stroke="#000000" stroke-miterlimit="10" points="357.557,375.392 330.753,366.742 303.619,366.742 356.569,384.101 "/>
<polygon stroke="#000000" stroke-miterlimit="10" points="348.896,394.942 357.311,392.365 357.557,375.692 349.158,377.214 "/>
</svg>
