<?xml version="1.0" encoding="utf-8"?>
<!-- Generator: Adobe Illustrator 21.0.0, SVG Export Plug-In . SVG Version: 6.00 Build 0)  -->
<svg version="1.1" id="Layer_1" xmlns="http://www.w3.org/2000/svg" xmlns:xlink="http://www.w3.org/1999/xlink" x="0px" y="0px"
	 viewBox="0 0 635.6 438" style="enable-background:new 0 0 635.6 438;" xml:space="preserve">
<style type="text/css">
	.st0{fill:#F71137;stroke:#F71137;stroke-width:2;stroke-miterlimit:10;}
	.st1{fill:#262626;}
</style>
<title>Asset 6</title>
<path class="st0" d="M509.4,410.5H126.3V27.5h383.1V410.5z M131.3,405.5h373.1V32.5H131.3L131.3,405.5z"/>
<path class="st1" d="M237.3,212.3c1.8,1.9,4.6,2.6,8.3,2l13.7-1.9c3.8-0.5,7.3-2.1,10.1-4.8c2.8-2.8,4.7-6.4,5.2-10.3l22.1-123.7
	c0.7-3.8,0.2-6.7-1.6-8.7s-4.5-2.7-8.3-2.2l-13.7,1.8c-3.8,0.5-7.4,2.3-10.1,5c-2.8,2.7-4.6,6.3-5.3,10.1l-22.1,123.7
	C235,207.4,235.5,210.4,237.3,212.3 M249.4,200.2l22-123.4l12-1.6l-0.3,1.7l-22,123.4l-12,1.7L249.4,200.2z"/>
<polygon class="st1" points="296.5,207.4 311.9,121.3 314.5,121.6 312.9,193.5 319.2,192.7 344.2,116.8 346.7,117.4 331.4,202.6 
	344.9,200.8 371.6,51.3 355.2,53.5 324.6,146 326.4,57.4 309.8,59.7 283.1,209.2 "/>
<path class="st1" d="M369.2,197.5l12.3-68.8l12.3-1.7l-0.3,1.7l-12,67l13.5-1.8l24.6-137.6c0.6-3.4,0-6-1.9-8
	c-1.5-1.6-3.6-2.5-5.8-2.4c-0.6,0-1.2,0-1.7,0.1l-15.3,2.1c-3.6,0.6-6.9,2.3-9.4,4.9c-2.7,2.5-4.5,5.8-5.3,9.5l-24.4,136.9
	L369.2,197.5z M384,114.6l9.7-54.4l12.3-1.7l-0.3,1.7l-9.7,54.4l-12.3,1.7L384,114.6z"/>
<polygon class="st1" points="419,190.8 432.9,113.1 435.4,113.3 436.4,188.4 448.4,186.8 482.5,0 463.6,2.6 468,8.4 467.9,9 
	446,127 444.4,41.4 432.4,43 405.7,192.6 "/>
<path class="st1" d="M205.4,313.4L205.4,313.4c0.2-1,0.1-2-0.2-2.9c-0.2-0.8-0.7-1.5-1.3-1.9c-1.1-0.6-2.4-0.9-3.7-0.8h-1.7
	l23.3-70.4l-13.1,1.8l-21.8,69.6l-5.8,0.8l0.3-1.7l27.9-155.7l12.2-1.7l-0.3,1.7l-12,67l13.5-1.8l11.4-63.9c0.4-2,0.4-4.1-0.1-6.1
	c-0.4-1.5-2.3-2.4-5.6-2.4l-8.8-0.3l8.5-2.2c1.7-0.4,3.3-1.1,4.8-2.1c1.2-0.8,2.2-1.9,3-3.1c0.7-1.1,1.2-2.3,1.6-3.6
	c0.3-1.3,0.6-2.5,0.8-3.6l9.1-50.6c0.6-3.2,0-5.8-1.9-7.8s-4.3-2.7-7.6-2.3l-36.9,5l7.3,9.6l-0.1,0.6l-55.1,308l13.4-1.8l12.3-68.8
	l12.2-1.7l-0.3,1.7L172,431.1l-6.5,6.9l19-2.5l20.5-118.6C205.1,315.8,205.3,314.6,205.4,313.4 M211.8,138l9.7-54.4l12.3-1.7
	l-0.3,1.7l-9.7,54.4l-12.3,1.7L211.8,138z"/>
<path class="st1" d="M264.1,234.9c-1.6-1.6-3.8-2.5-6-2.3c-0.7,0-1.5,0.1-2.2,0.1l-13.7,1.8c-3.8,0.5-7.4,2.3-10.1,5
	c-2.8,2.7-4.6,6.3-5.3,10.1l-22.1,123.7c-0.7,4-0.2,7,1.6,8.8s4.5,2.5,8.3,2l13.7-1.9c3.8-0.4,7.3-2.1,10.1-4.8
	c2.8-2.8,4.6-6.4,5.2-10.3l22.2-123.8C266.4,239.7,265.9,236.8,264.1,234.9 M252.3,246.8l-22,123.4l-12.1,1.6l0.3-1.7l22.1-123.4
	l12-1.6L252.3,246.8z"/>
<polygon class="st1" points="268.1,363.4 292.3,227.8 278.8,229.6 252.1,379.1 282.3,375 284.5,362.8 267.7,365.1 "/>
<path class="st1" d="M335.5,308.6l-13.9-31.6c-0.4-0.9-0.7-1.9-0.9-2.9c-0.2-1.2-0.2-2.5,0.1-3.7l6.3-35.4l11.8-1.6l-0.3,1.7
	l-5.9,32.8l13.5-1.9l6.3-35.7c0.7-3.9,0.2-6.6-1.5-8s-4.7-1.9-8.7-1.3l-13.7,1.8c-3.7,0.4-7.2,1.8-10.1,4.1c-2.6,2.2-4.2,5.4-5,9.5
	l-6.8,38.1c-0.3,1.4-0.4,2.9-0.5,4.4c0,1.5,0.4,2.9,1,4.2l14.7,33.5c1.1,2,1.4,4.3,0.8,6.5l-6.3,35.4l-11.9,1.6l0.3-1.7l5.9-32.8
	l-13.5,1.8l-6.4,35.6c-0.7,4-0.2,6.6,1.5,8s4.7,1.9,8.7,1.4l13.7-1.9c3.7-0.4,7.2-1.8,10.1-4.1c2.7-2.5,4.5-5.8,5-9.5l6.3-35.5
	c0.3-1.8,0.6-3.3,0.7-4.5c0.1-1,0.2-2,0.1-3c-0.1-0.9-0.2-1.7-0.5-2.6C336.4,310.4,336,309.5,335.5,308.6"/>
<polygon class="st1" points="393.7,214 380.2,289.6 377.7,289.4 376.3,216.4 364.3,218 337.6,367.5 350.9,365.8 364.7,288 
	367.3,288.3 368.3,363.4 380.3,361.8 407,212.2 "/>
<path class="st1" d="M459.7,205.1l-13.1,1.8l-21.8,69.7l-5.8,0.8l0.3-1.7l11.9-66.6l-13.5,1.8l-26.7,149.6l13.5-1.8l12.3-68.8
	l12.2-1.7l-0.3,1.7l-12,67.1l13.5-1.8l12.6-70.4c0.2-1.1,0.4-2.3,0.5-3.5c0.2-1,0.1-2-0.1-3c-0.2-0.8-0.7-1.5-1.4-1.9
	c-1.1-0.6-2.4-0.9-3.6-0.8h-1.8l0.6-1.7L459.7,205.1z"/>
</svg>
